<?xml version="1.0" standalone="no"?><!DOCTYPE svg PUBLIC "-//W3C//DTD SVG 1.1//EN" "http://www.w3.org/Graphics/SVG/1.1/DTD/svg11.dtd"><svg t="1690441689542" class="icon" viewBox="0 0 1024 1024" version="1.1" xmlns="http://www.w3.org/2000/svg" p-id="4824" xmlns:xlink="http://www.w3.org/1999/xlink" width="200" height="200"><path d="M184.32 351.36h-40.96a15.36 15.36 0 0 0-11.52 24.96l90.24 106.88 90.88-106.24a15.36 15.36 0 0 0-11.52-24.96H256a156.8 156.8 0 0 1 140.16-151.68h32V128h-30.72a218.24 218.24 0 0 0-213.12 223.36zM133.12 598.4v256a40.96 40.96 0 0 0 40.96 40.96H460.8a40.96 40.96 0 0 0 40.96-40.96v-256a40.96 40.96 0 0 0-40.96-40.96H174.08a40.96 40.96 0 0 0-40.96 40.96z m69.76 48a24.32 24.32 0 0 1 24.96-24.96h176a24.96 24.96 0 0 1 24.96 24.96v163.84a25.6 25.6 0 0 1-24.96 24.96H227.84a24.96 24.96 0 0 1-24.96-24.96zM801.92 541.44l-90.88 106.24a15.36 15.36 0 0 0 11.52 24.96H768a156.16 156.16 0 0 1-140.16 149.12h-32V896h30.72a218.24 218.24 0 0 0 213.12-222.72h40.96a15.36 15.36 0 0 0 11.52-24.96zM832 466.56a41.6 41.6 0 0 0 40.96-40.96v-256a40.96 40.96 0 0 0-12.16-28.8 38.4 38.4 0 0 0-13.44-8.96A40.96 40.96 0 0 0 832 128H543.36a41.6 41.6 0 0 0-40.96 40.96v256a40.96 40.96 0 0 0 40.96 40.96z m-256-256a25.6 25.6 0 0 1 25.6-24.96h176a25.6 25.6 0 0 1 24.96 24.96v164.48a25.6 25.6 0 0 1-24.96 25.6H602.24a25.6 25.6 0 0 1-25.6-25.6z" fill="#1296db" p-id="4825"></path></svg>