<?xml version="1.0" standalone="no"?><!DOCTYPE svg PUBLIC "-//W3C//DTD SVG 1.1//EN" "http://www.w3.org/Graphics/SVG/1.1/DTD/svg11.dtd"><svg t="1690442110809" class="icon" viewBox="0 0 1024 1024" version="1.1" xmlns="http://www.w3.org/2000/svg" p-id="14674" xmlns:xlink="http://www.w3.org/1999/xlink" width="200" height="200"><path d="M369.40625 609.875s-151.17187527-2.88281277-167.44921848 154.33593777c0 0-11.8125 42.96093777-51.46875 49.67578125-39.62109348 6.67968777 230.62499973 110.21484375 300.23437473-124.62890679" fill="#FFD9D9" p-id="14675"></path><path d="M248.60937473 863.56250027c-12.30468723 0-24.60937527-0.80859348-36.77343723-2.39062554-25.734375-3.44531223-85.78125027-14.5546875-86.55468723-44.22656196a24.08203152 24.08203152 0 0 1 21.79687473-24.01171929c22.04296875-3.72656277 31.640625-27.28124973 33.71484348-33.15234321 15.43359402-137.84765625 130.18359402-172.546875 188.68359375-171.59765625a21.44531277 21.44531277 0 0 1 18.5625 21.48046848 21.44531277 21.44531277 0 0 1-19.23046821 20.91796902c-5.34374973 0-131.76562527 0-145.82812554 135.6328125a23.76562527 23.76562527 0 0 1-0.70312473 3.41015571c-5.2734375 17.12109402-14.80078152 32.62500027-27.77343777 45.10546929a234.63281223 234.63281223 0 0 0 120.09375054-3.41015652c56.77734402-18.28125027 95.62499973-61.45312473 115.45312473-128.25a21.7265625 21.7265625 0 0 1 36.28125-8.68359402 21.09375 21.09375 0 0 1 5.0625 20.70703152C428.6796875 840.8515625 315.01953152 863.49218723 248.60937473 863.56250027z" fill="#666666" p-id="14676"></path><path d="M451.21484348 710.52734402a21.76171902 21.76171902 0 0 1-15.11718696-6.1171875l-81.80859429-79.80468804a21.16406223 21.16406223 0 0 1 0-30.05859375l409.21875-410.80078125a79.59374973 79.59374973 0 0 1 85.99218777-17.57812473A78.046875 78.046875 0 0 1 898.71874973 238.02734402a76.88671875 76.88671875 0 0 1-22.74609348 55.37109375L466.57812527 704.1640625a22.00781223 22.00781223 0 0 1-15.1875 6.328125h-0.17578179z m-51.46875-101.25l51.46875 49.78125L845.77343723 263.44531277a35.2265625 35.2265625 0 0 0 0-50.203125c-14.06250027-13.67578098-36.63281277-13.67578098-50.69531223 0L399.74609348 609.27734402z" fill="#666666" p-id="14677"></path><path d="M530.73828098 630.82812473a21.76171902 21.76171902 0 0 1-15.1875-6.1171875l-81.49218723-79.80468723a21.09375 21.09375 0 0 1-0.24609402-30.05859375 21.7265625 21.7265625 0 0 1 30.44531304-0.24609402l81.31640625 79.76953152a21.09375 21.09375 0 0 1 4.8515625 23.203125 21.515625 21.515625 0 0 1-19.93359375 13.25390598h0.24609321z" fill="#666666" p-id="14678"></path></svg>